HIERARCHY
ROOT Pelvis
{
	OFFSET 0.000000 0.941512 0.000000
	CHANNELS 6 Xposition Yposition Zposition Zrotation Yrotation Xrotation 
	JOINT Pelvis_L_Hip
	{
		OFFSET 0.000000 0.000000 0.000000
		CHANNELS 3 Zrotation Yrotation Xrotation
		JOINT L_Hip
		{
			OFFSET 0.062321 -0.080322 -0.016990
			CHANNELS 3 Zrotation Yrotation Xrotation
			JOINT L_Knee
			{
				OFFSET 0.093051 -0.381305 -0.029784
				CHANNELS 3 Zrotation Yrotation Xrotation
				JOINT L_Ankle
				{
					OFFSET -0.010371 -0.431000 -0.033614
					CHANNELS 3 Zrotation Yrotation Xrotation
					End Site #name: L_Foot
					{
						OFFSET 0.069299 -0.038670 0.119418
					}
				}
			}
		}
	}
	JOINT Pelvis_R_Hip
	{
		OFFSET 0.000000 0.000000 0.000000
		CHANNELS 3 Zrotation Yrotation Xrotation
		JOINT R_Hip
		{
			OFFSET -0.055334 -0.094904 -0.002373
			CHANNELS 3 Zrotation Yrotation Xrotation
			JOINT R_Knee
			{
				OFFSET -0.064207 -0.384370 -0.019592
				CHANNELS 3 Zrotation Yrotation Xrotation
				JOINT R_Ankle
				{
					OFFSET 0.025418 -0.419734 -0.065953
					CHANNELS 3 Zrotation Yrotation Xrotation
					End Site #name: R_Foot
					{
						OFFSET -0.057233 -0.039888 0.132134
					}
				}
			}
		}
	}
	JOINT Pelvis_Spine1
	{
		OFFSET 0.000000 0.000000 0.000000
		CHANNELS 3 Zrotation Yrotation Xrotation
		JOINT Spine1
		{
			OFFSET -0.005562 0.124093 -0.043360
			CHANNELS 3 Zrotation Yrotation Xrotation
			JOINT Spine2
			{
				OFFSET 0.012244 0.139499 0.029894
				CHANNELS 3 Zrotation Yrotation Xrotation
				JOINT Spine3
				{
					OFFSET -0.002556 0.056561 0.009225
					CHANNELS 3 Zrotation Yrotation Xrotation
					JOINT Spine3_Neck
					{
						OFFSET 0.000000 0.000000 0.000000
						CHANNELS 3 Zrotation Yrotation Xrotation
						JOINT Neck
						{
							OFFSET -0.005205 0.217920 -0.024551
							CHANNELS 3 Zrotation Yrotation Xrotation
							End Site #name: Head
							{
								OFFSET 0.002365 0.091850 0.046637
							}
						}
					}
					JOINT Spine3_L_Collar
					{
						OFFSET 0.000000 0.000000 0.000000
						CHANNELS 3 Zrotation Yrotation Xrotation
						JOINT L_Collar
						{
							OFFSET 0.072225 0.116603 -0.009480
							CHANNELS 3 Zrotation Yrotation Xrotation
							JOINT L_Shoulder
							{
								OFFSET 0.115937 -0.058643 -0.021018
								CHANNELS 3 Zrotation Yrotation Xrotation
								JOINT L_Elbow
								{
									OFFSET 0.021994 -0.254722 -0.024492
									CHANNELS 3 Zrotation Yrotation Xrotation
									End Site #name: L_Wrist
									{
										OFFSET 0.048810 -0.240214 0.103329
									}
								}
							}
						}
					}
					JOINT Spine3_R_Collar
					{
						OFFSET 0.000000 0.000000 0.000000
						CHANNELS 3 Zrotation Yrotation Xrotation
						JOINT R_Collar
						{
							OFFSET -0.073372 0.120704 -0.024611
							CHANNELS 3 Zrotation Yrotation Xrotation
							JOINT R_Shoulder
							{
								OFFSET -0.108089 -0.054969 -0.020504
								CHANNELS 3 Zrotation Yrotation Xrotation
								JOINT R_Elbow
								{
									OFFSET -0.033684 -0.260739 0.009889
									CHANNELS 3 Zrotation Yrotation Xrotation
									End Site #name: R_Wrist
									{
										OFFSET -0.067980 -0.232763 0.118463
									}
								}
							}
						}
					}
				}
			}
		}
	}
}
MOTION
Frames: 8
Frame Time: 0.041667
0.130776 0.935269 1.567727 -1.002128 8.060143 -2.570963 0.000000 0.000000 0.000000 0.174338 1.955660 8.508478 -1.412933 -1.076658 34.253746 -1.813248 -13.279317 -3.255971 0.000000 0.000000 0.000000 7.076077 2.083759 -10.538972 -1.416893 0.698128 7.189820 2.530178 7.204998 0.969595 0.000000 0.000000 0.000000 0.798826 -0.383848 2.024169 3.601920 -0.610814 0.248829 1.646601 1.984506 2.798336 0.000000 0.000000 0.000000 -0.117867 0.077889 -0.294707 0.000000 0.000000 0.000000 7.112783 -4.735194 -1.152408 -8.227440 2.304250 9.771901 4.811841 0.941658 -6.968268 0.000000 0.000000 0.000000 -8.025336 2.454803 -0.237257 8.070832 -2.452737 13.147044 -9.810939 -3.298836 -8.808668 
0.129361 0.937368 1.599071 -0.411602 6.930273 -2.772053 0.000000 0.000000 0.000000 -0.360277 1.039768 4.205833 -2.994564 -0.479775 36.967849 2.411945 -4.179862 -5.930292 0.000000 0.000000 0.000000 7.084973 1.500492 -7.904089 -1.923164 0.772864 6.455896 2.485897 8.972578 -0.253609 0.000000 0.000000 0.000000 0.223032 -0.321521 2.718168 3.035319 -0.521561 -0.419681 1.897430 2.873953 3.391722 0.000000 0.000000 0.000000 -0.626132 0.311419 0.274446 0.000000 0.000000 0.000000 6.997947 -3.763810 -0.589143 -8.131025 2.166318 8.981578 4.954723 0.956959 -7.325991 0.000000 0.000000 0.000000 -8.917682 4.380833 -1.289009 7.688148 -2.309562 12.601859 -9.495671 -2.880127 -10.013520 
0.129299 0.939463 1.628066 0.134880 5.683118 -2.667469 0.000000 0.000000 0.000000 -0.790029 0.010606 -0.207488 -4.785347 0.404822 35.865398 5.255747 4.030053 -6.811071 0.000000 0.000000 0.000000 6.838410 1.027517 -5.832709 -2.200572 0.798979 5.875076 2.350604 10.726821 -1.557028 0.000000 0.000000 0.000000 0.022954 -0.281525 2.843678 2.457140 -0.437762 -1.036073 1.788425 3.498310 3.839438 0.000000 0.000000 0.000000 -1.230462 0.613919 0.527074 0.000000 0.000000 0.000000 6.838362 -2.685907 0.011214 -7.970201 2.108273 8.737567 4.910251 0.838957 -7.928621 0.000000 0.000000 0.000000 -9.729990 5.722722 -2.018223 7.249013 -2.104374 11.768585 -9.218327 -2.434687 -11.393231 
0.130260 0.940814 1.654953 0.503077 4.540965 -2.314987 0.000000 0.000000 0.000000 -0.731511 -1.109043 -4.674432 -6.462912 1.160581 32.134860 6.672296 8.757182 -6.849233 0.000000 0.000000 0.000000 6.430011 0.652116 -4.187371 -2.095093 0.744569 5.376331 2.112698 12.283097 -2.863645 0.000000 0.000000 0.000000 0.132806 -0.273649 2.558614 2.026274 -0.377643 -1.408154 1.405895 3.792636 4.020115 0.000000 0.000000 0.000000 -1.851064 0.937915 0.462934 0.000000 0.000000 0.000000 6.455486 -1.880440 0.386086 -7.613503 2.107624 9.076343 4.838017 0.730321 -8.379688 0.000000 0.000000 0.000000 -10.286368 6.518673 -2.439015 6.604709 -1.894433 10.969560 -8.937237 -1.857760 -13.313720 
0.131824 0.941208 1.680585 0.733794 3.375439 -1.981669 0.000000 0.000000 0.000000 -0.311863 -2.125171 -8.703751 -7.650783 1.539366 26.761301 7.097419 11.093410 -6.329075 0.000000 0.000000 0.000000 5.987735 0.331689 -2.745807 -1.904224 0.695921 5.201911 1.823312 13.858271 -4.193135 0.000000 0.000000 0.000000 0.365718 -0.281875 2.136939 1.665655 -0.323089 -1.510370 0.990822 3.944930 4.060900 0.000000 0.000000 0.000000 -2.513253 1.286667 0.156200 0.000000 0.000000 0.000000 5.914736 -1.249506 0.612529 -7.138431 2.096021 9.498978 4.707821 0.643708 -8.511617 0.000000 0.000000 0.000000 -10.518716 7.017188 -2.696733 5.737553 -1.741285 10.511092 -8.632551 -1.151732 -15.643091 
0.133750 0.940707 1.705752 0.939666 2.045463 -1.864979 0.000000 0.000000 0.000000 0.131821 -2.914482 -11.935362 -7.950546 1.476593 20.533177 6.898985 12.261492 -5.275366 0.000000 0.000000 0.000000 5.649387 0.039045 -1.392206 -2.020262 0.760048 5.663559 1.328374 15.405979 -5.810499 0.000000 0.000000 0.000000 0.503655 -0.261113 1.635390 1.313862 -0.257076 -1.205695 0.740355 4.028590 4.088613 0.000000 0.000000 0.000000 -3.214867 1.650594 -0.225021 0.000000 0.000000 0.000000 5.422148 -0.641858 0.825544 -6.886266 2.088501 9.687816 4.658814 0.619231 -8.529992 0.000000 0.000000 0.000000 -10.605660 7.389504 -2.875315 4.869013 -1.623081 10.205293 -8.249260 -0.398050 -17.778252 
0.136062 0.939289 1.730710 1.113021 0.647372 -1.940346 0.000000 0.000000 0.000000 0.502690 -3.492304 -14.412377 -7.119039 1.084984 14.139579 5.759033 11.044760 -3.904864 0.000000 0.000000 0.000000 5.453625 -0.261662 0.014286 -2.511065 0.939912 6.519154 0.604940 16.769406 -7.677063 0.000000 0.000000 0.000000 0.677560 -0.240043 1.035044 0.910249 -0.169755 -0.563726 0.516374 3.971579 4.110640 0.000000 0.000000 0.000000 -3.895183 1.996439 -0.575140 0.000000 0.000000 0.000000 5.027433 -0.139125 0.992238 -6.786520 2.112800 9.892484 4.726634 0.632070 -8.700248 0.000000 0.000000 0.000000 -10.559609 7.617313 -2.962268 4.178346 -1.537990 9.993872 -7.750563 0.377027 -19.483809 
0.139180 0.936824 1.756323 1.218291 -0.757887 -2.205840 0.000000 0.000000 0.000000 0.845023 -3.896857 -16.263333 -5.484896 0.635684 8.177544 3.963677 8.102535 -2.386264 0.000000 0.000000 0.000000 5.313713 -0.584097 1.547958 -3.178792 1.203647 7.734441 -0.376176 17.887999 -9.825986 0.000000 0.000000 0.000000 1.067425 -0.260194 0.372385 0.447831 -0.059458 0.324762 0.180637 3.762006 4.081850 0.000000 0.000000 0.000000 -4.583837 2.342469 -0.741449 0.000000 0.000000 0.000000 4.591002 0.229315 1.070298 -6.502863 2.131143 10.284676 4.702248 0.570684 -9.034546 0.000000 0.000000 0.000000 -10.324693 7.602319 -2.904386 3.669170 -1.516494 10.082602 -7.155480 1.264129 -21.184855 
